# xmcd
# 
# Track frame offsets:
#     150
#     35585
#     63994
#     99848
#     129567
#     175570
#     206079
# 
# Disc length: 3296
# 
# Revision: 0
# Processed by: cddbd v1.5.2PL0 Copyright (c) Steve Scherf et al.
# Submitted via: fre:ac v1.0.17
# 
DISCID=570cde07
DTITLE=Paul Maar - Am Samstag kam das Sams zurück
DYEAR=1980
DGENRE=Hörbuch
TTITLE0=Am Sonntag schien die Sonne
TTITLE1=Wer kommt vorbei?
TTITLE2=Kaum hatte Herr Taschenbier
TTITLE3=Herr Taschenbier nahm das Sams an die Hand
TTITLE4=Am Montagmorgen
TTITLE5=Am nächsten Morgen
TTITLE6=Am nächsten Morgen
EXTD=
EXTT0=
EXTT1=
EXTT2=
EXTT3=
EXTT4=
EXTT5=
EXTT6=
PLAYORDER=
